<?xml version="1.0" standalone="no"?>
<!DOCTYPE svg PUBLIC "-//W3C//DTD SVG 20010904//EN"
 "http://www.w3.org/TR/2001/REC-SVG-20010904/DTD/svg10.dtd">
<svg version="1.0" xmlns="http://www.w3.org/2000/svg"
 width="800.000000pt" height="800.000000pt" viewBox="0 0 800.000000 800.000000"
 preserveAspectRatio="xMidYMid meet">

<g transform="translate(0.000000,800.000000) scale(0.100000,-0.100000)"
fill="#000000" stroke="none">
<path d="M3975 5103 c-133 -344 -275 -737 -269 -742 23 -20 163 -90 167 -83 2
4 15 44 28 89 l24 83 110 0 111 0 18 -87 c10 -49 20 -91 22 -94 6 -10 175 45
171 56 -2 5 -48 187 -103 402 l-99 393 -86 0 c-74 0 -88 -3 -94 -17z m101
-314 c8 -35 16 -74 19 -86 5 -22 2 -23 -45 -23 -27 0 -50 3 -50 6 0 15 53 174
57 170 2 -2 11 -33 19 -67z"/>
<path d="M3295 5104 c-53 -14 -86 -27 -98 -38 -9 -10 -11 -102 -7 -412 l5
-399 85 0 85 0 0 102 c0 56 3 104 7 108 4 4 20 -22 36 -58 50 -110 141 -188
237 -204 l35 -6 0 117 c0 107 -2 116 -19 116 -25 0 -70 37 -82 66 -7 20 -3 32
25 69 55 71 71 126 71 240 0 114 -18 165 -76 223 -55 56 -103 74 -199 78 -47
2 -94 1 -105 -2z m189 -237 c14 -19 21 -43 21 -74 0 -39 -5 -49 -38 -79 -30
-28 -45 -35 -70 -32 l-32 3 -3 99 c-3 112 0 118 62 114 29 -2 44 -10 60 -31z"/>
<path d="M4378 4728 c0 -205 -1 -398 -2 -428 l-1 -55 81 -3 81 -3 6 293 c4
161 7 355 7 431 l0 137 -85 0 -85 0 -2 -372z"/>
<path d="M4580 4758 c0 -172 3 -370 7 -440 l6 -128 37 0 c21 0 57 3 81 6 l44
6 -3 237 c-3 203 -2 233 10 216 8 -11 70 -118 137 -237 l123 -218 83 0 82 0 6
212 c4 116 7 312 7 435 l0 223 -32 0 c-18 0 -57 -3 -85 -6 l-53 -7 0 -229 c0
-126 -3 -227 -8 -224 -4 2 -66 105 -137 229 -86 148 -137 227 -150 231 -11 3
-50 6 -87 6 l-68 0 0 -312z"/>
<path d="M2793 5031 c-94 -3 -174 -8 -176 -11 -3 -3 -3 -53 0 -112 l6 -108 88
0 89 0 1 -227 c1 -213 3 -281 7 -375 l2 -38 63 0 c34 0 72 3 85 6 l22 6 0 319
0 319 89 0 c50 0 92 4 95 9 3 5 3 57 -1 115 l-6 106 -96 -2 c-53 -1 -173 -4
-268 -7z"/>
<path d="M2379 4555 c-3 -2 -61 -12 -129 -20 -154 -20 -173 -30 -195 -94 -17
-52 -33 -63 -108 -76 -51 -8 -74 -34 -83 -92 -11 -74 -20 -93 -47 -93 -50 0
-77 -67 -77 -188 0 -72 0 -73 -30 -84 -35 -12 -45 -40 -36 -101 9 -51 31 -77
67 -77 26 0 29 -5 50 -76 12 -42 35 -93 51 -115 23 -32 34 -39 62 -39 25 0 40
-7 55 -26 12 -15 21 -31 21 -37 0 -6 12 -26 27 -45 l26 -35 68 6 c73 6 82 2
118 -50 32 -47 72 -57 160 -38 40 8 105 18 144 21 40 4 84 13 99 21 59 29 78
117 78 357 0 94 4 177 9 185 10 15 369 59 675 83 218 17 999 16 1226 -1 278
-20 657 -66 675 -81 11 -9 14 -22 10 -39 -8 -33 -8 -297 0 -347 11 -66 35
-131 54 -148 13 -11 56 -22 128 -31 60 -8 133 -19 162 -25 66 -12 113 5 136
50 20 39 45 48 120 43 69 -6 77 0 120 85 25 49 28 52 65 52 52 0 82 38 116
146 24 77 28 84 53 84 40 0 50 12 63 74 14 64 7 83 -34 103 -24 12 -26 19 -31
105 -7 119 -20 157 -58 165 -38 7 -47 20 -59 83 -14 72 -37 95 -111 109 -46 9
-62 17 -69 34 -4 12 -14 37 -20 55 -21 54 -33 57 -347 99 -60 8 -92 -19 -141
-119 -45 -92 -78 -193 -102 -313 -15 -75 -18 -80 -41 -79 -13 1 -134 13 -269
27 -381 40 -602 50 -1045 50 -426 0 -673 -12 -1083 -54 -111 -11 -210 -19
-219 -17 -12 2 -26 42 -54 152 -42 161 -103 302 -146 336 -23 18 -92 28 -104
15z m16 -555 c24 -190 69 -394 119 -544 14 -39 22 -73 20 -75 -2 -2 -19 29
-38 70 -89 193 -167 713 -140 934 8 66 8 62 16 -95 4 -91 14 -221 23 -290z
m3286 273 c0 -222 -38 -494 -97 -697 -24 -84 -71 -193 -79 -184 -2 2 12 55 31
117 71 234 110 464 124 740 5 97 10 178 10 180 0 2 3 2 6 -1 3 -3 5 -73 5
-155z m-3542 -443 c11 -63 36 -169 56 -235 50 -167 49 -164 21 -120 -68 104
-127 406 -128 650 0 216 16 223 24 10 4 -116 14 -235 27 -305z m3807 245 c-8
-220 -59 -472 -117 -587 -34 -66 -38 -50 -10 35 63 185 96 379 108 627 6 129
8 148 16 110 4 -25 6 -108 3 -185z m-4007 -367 c16 -75 17 -89 5 -73 -37 50
-71 259 -58 353 7 57 7 56 21 -65 7 -67 22 -163 32 -215z m4202 101 c-10 -73
-48 -196 -58 -186 -2 3 3 38 11 78 8 41 20 117 26 169 6 52 15 111 18 130 12
61 14 -106 3 -191z"/>
<path d="M4672 3802 c-29 -11 -54 -21 -56 -23 -2 -2 -5 -191 -7 -419 l-4 -415
70 -9 c148 -18 306 31 380 116 53 63 77 136 83 252 3 59 0 122 -8 155 -53 242
-274 407 -458 343z m200 -258 c15 -8 40 -31 55 -51 24 -31 28 -47 31 -112 5
-126 -39 -186 -150 -205 l-38 -7 0 195 c0 146 3 196 13 199 16 6 55 -2 89 -19z"/>
<path d="M4193 3800 c-23 -5 -55 -16 -72 -25 l-31 -16 0 -117 c0 -64 3 -249 7
-409 l6 -293 79 0 78 0 0 110 c0 69 4 110 10 110 6 0 13 -8 17 -17 20 -61 56
-126 87 -161 40 -44 125 -92 163 -92 23 0 23 2 23 115 0 106 -1 115 -19 115
-23 0 -81 64 -81 89 0 9 11 28 24 40 43 41 69 117 74 217 10 208 -81 329 -256
339 -37 2 -86 0 -109 -5z m172 -226 c27 -30 40 -80 30 -116 -16 -51 -78 -95
-116 -83 -17 6 -19 18 -19 110 0 90 2 104 18 108 41 11 64 6 87 -19z"/>
<path d="M2890 3365 l0 -436 83 3 82 3 3 168 c2 137 5 167 17 167 8 0 48 -5
90 -11 l75 -11 0 -158 0 -157 75 -7 c42 -4 80 -4 85 -1 12 7 13 268 3 628 l-6
247 -79 0 -78 0 0 -160 c0 -134 -2 -160 -15 -160 -8 0 -48 5 -90 11 l-75 11 0
149 0 149 -85 0 -85 0 0 -435z"/>
<path d="M3581 3410 c-74 -209 -132 -382 -130 -383 20 -15 149 -87 156 -87 4
0 19 39 33 88 l25 87 105 0 105 0 16 -88 c9 -48 19 -91 22 -94 3 -3 39 6 79
19 54 18 74 29 75 44 2 10 -39 192 -90 404 l-93 385 -84 3 -85 3 -134 -381z
m229 33 c7 -43 13 -82 14 -87 1 -12 -62 -19 -79 -8 -9 5 -6 26 13 94 14 48 28
85 32 83 4 -2 13 -39 20 -82z"/>
<path d="M3874 546 c-10 -26 4 -48 28 -44 17 2 23 10 23 28 0 18 -6 26 -23 28
-13 2 -25 -3 -28 -12z"/>
<path d="M3068 479 c-15 -8 -18 -25 -18 -104 l0 -95 30 0 c25 0 30 4 30 25 0
21 5 25 31 25 43 0 65 15 78 50 12 37 1 72 -31 94 -25 18 -94 21 -120 5z m80
-38 c8 -5 12 -21 10 -37 -2 -21 -9 -30 -25 -32 -20 -3 -23 1 -23 31 0 45 11
56 38 38z"/>
<path d="M3272 478 c-21 -10 -23 -17 -20 -77 3 -64 4 -66 31 -69 27 -3 27 -3
27 53 0 54 1 56 30 62 21 4 30 11 28 22 -4 20 -63 25 -96 9z"/>
<path d="M3409 471 c-34 -27 -33 -95 0 -123 35 -27 126 -23 126 7 0 17 -6 19
-42 17 -58 -5 -55 12 5 24 37 7 48 13 50 31 8 55 -88 85 -139 44z m81 -31 c0
-5 -12 -10 -26 -10 -14 0 -23 4 -19 10 3 6 15 10 26 10 10 0 19 -4 19 -10z"/>
<path d="M3598 479 c-15 -8 -18 -24 -18 -79 l0 -70 30 0 30 0 0 60 c0 45 4 60
14 60 18 0 26 -22 26 -76 0 -40 2 -44 25 -44 22 0 24 4 27 57 2 45 7 59 20 61
14 3 17 -6 20 -55 3 -55 4 -58 31 -61 l27 -3 0 70 c0 57 -3 72 -18 80 -23 12
-192 12 -214 0z"/>
<path d="M3870 411 l0 -81 30 0 31 0 -3 78 c-3 76 -3 77 -30 80 l-28 3 0 -80z"/>
<path d="M3960 431 c0 -79 19 -101 88 -101 72 0 84 13 80 90 -3 63 -4 65 -30
68 -28 3 -28 3 -28 -58 0 -58 -1 -61 -22 -58 -20 3 -24 10 -28 58 -5 51 -7 55
-32 58 -28 3 -28 3 -28 -57z"/>
<path d="M4181 473 c-19 -13 -22 -23 -19 -76 3 -59 4 -62 30 -65 26 -3 27 -2
30 55 2 44 7 58 18 58 11 0 16 -15 20 -55 5 -51 7 -55 32 -58 26 -3 27 -2 30
55 2 44 7 58 18 58 11 0 16 -14 18 -58 3 -57 4 -58 30 -55 25 3 27 6 30 60 4
84 -11 96 -126 96 -64 0 -96 -4 -111 -15z"/>
<path d="M4480 477 c-49 -25 -34 -72 26 -83 48 -9 37 -29 -15 -27 -44 2 -53
-10 -22 -27 48 -25 121 -1 115 38 -1 6 -2 16 -3 22 0 5 -19 14 -41 20 -22 6
-40 15 -40 20 0 6 18 10 40 10 43 0 52 13 21 30 -26 13 -50 13 -81 -3z"/>
<path d="M4624 476 c-6 -16 10 -73 33 -119 31 -62 94 -12 110 88 5 34 4 37
-18 33 -18 -2 -25 -12 -34 -48 -13 -55 -27 -55 -38 -1 -9 45 -43 74 -53 47z"/>
<path d="M4843 480 c-71 -29 -47 -134 31 -134 23 0 36 -5 36 -13 0 -14 -34
-25 -65 -21 -11 2 -21 -1 -22 -7 -2 -6 23 -10 60 -10 l62 0 3 88 c3 86 2 87
-23 97 -31 12 -52 12 -82 0z m67 -65 c0 -30 -3 -35 -24 -35 -30 0 -40 14 -32
46 5 17 13 24 31 24 22 0 25 -4 25 -35z"/>
</g>
</svg>
