<?xml version="1.0" standalone="no"?>
<!DOCTYPE svg PUBLIC "-//W3C//DTD SVG 20010904//EN"
 "http://www.w3.org/TR/2001/REC-SVG-20010904/DTD/svg10.dtd">
<svg version="1.0" xmlns="http://www.w3.org/2000/svg"
 width="256.000000pt" height="256.000000pt" viewBox="0 0 256.000000 256.000000"
 preserveAspectRatio="xMidYMid meet">

<g transform="translate(0.000000,256.000000) scale(0.100000,-0.100000)"
fill="#000000" stroke="none">
<path d="M793 2455 c-155 -34 -289 -154 -342 -307 -60 -174 -16 -390 121 -599
116 -178 397 -434 627 -573 l81 -49 81 49 c131 79 286 200 408 319 181 176
273 310 332 486 28 82 32 107 32 199 0 82 -5 118 -22 164 -61 170 -203 289
-377 317 -142 23 -288 -26 -397 -131 l-58 -57 -57 57 c-65 65 -156 113 -246
129 -74 14 -105 13 -183 -4z m280 -88 c70 -35 122 -80 185 -162 l22 -30 23 30
c62 82 114 127 186 163 72 35 80 37 176 37 96 0 104 -2 176 -37 93 -46 158
-112 202 -206 30 -63 32 -74 32 -177 0 -88 -5 -124 -24 -182 l-24 -73 -241 0
c-133 0 -246 -4 -252 -8 -6 -4 -44 -69 -85 -144 -41 -76 -76 -138 -79 -138 -3
0 -39 120 -80 268 -110 395 -99 364 -123 360 -14 -2 -52 -52 -125 -165 l-104
-163 -203 0 -203 0 -24 68 c-18 54 -23 88 -23 177 0 103 2 114 31 176 54 113
136 188 250 229 47 16 77 20 146 17 76 -3 95 -8 161 -40z m176 -718 c77 -277
90 -314 108 -317 18 -3 35 23 113 167 l92 171 215 0 c247 0 232 11 150 -108
-109 -159 -331 -364 -549 -508 l-97 -64 -58 36 c-234 149 -488 383 -602 554
l-64 95 204 5 204 5 94 143 c52 78 96 140 98 138 2 -2 44 -145 92 -317z"/>
<path d="M201 1855 c-16 -14 -32 -34 -35 -43 -3 -9 -21 -189 -41 -398 -28
-308 -32 -388 -23 -415 6 -19 80 -106 175 -208 144 -154 165 -181 179 -228 23
-80 12 -127 -37 -159 -22 -14 -44 -36 -49 -50 -15 -37 -13 -237 2 -252 17 -17
549 -17 566 0 8 8 12 52 12 131 l0 119 -34 34 -34 34 23 58 c82 201 44 403
-102 546 -53 53 -109 83 -230 127 -59 21 -107 40 -109 41 -1 2 -19 140 -38
306 -20 167 -40 312 -46 322 -34 63 -124 80 -179 35z m116 -47 c17 -20 25 -63
52 -298 17 -151 31 -284 31 -296 0 -12 -11 -26 -26 -34 -52 -29 -69 -101 -35
-156 15 -25 40 -40 132 -76 62 -25 119 -43 127 -41 7 3 12 15 10 26 -2 16 -26
30 -108 63 -57 23 -110 51 -117 61 -18 27 -1 71 30 78 27 7 230 -64 290 -102
60 -38 115 -100 150 -172 30 -62 32 -72 32 -176 -1 -98 -4 -118 -31 -185 l-29
-75 -155 -3 -155 -3 3 71 c5 107 -16 144 -207 347 -150 161 -161 175 -161 210
1 21 16 197 33 392 32 338 34 354 56 372 31 25 53 24 78 -3z m561 -1460 c8 -8
12 -46 12 -105 l0 -93 -235 0 -235 0 0 93 c0 59 4 97 12 105 17 17 429 17 446
0z"/>
<path d="M2216 1859 c-14 -11 -31 -29 -36 -39 -8 -14 -80 -577 -80 -620 0 -5
-35 -20 -77 -35 -141 -50 -202 -82 -264 -142 -145 -138 -185 -345 -105 -543
l24 -60 -34 -34 -34 -34 0 -119 c0 -79 4 -123 12 -131 17 -17 549 -17 566 0 8
8 12 49 12 120 0 124 -10 154 -64 186 -44 26 -55 77 -32 156 14 48 33 73 174
221 86 92 165 184 175 205 17 37 16 50 -18 422 -19 210 -38 391 -41 400 -3 9
-19 29 -35 43 -39 32 -104 34 -143 4z m107 -51 c21 -22 25 -47 56 -404 22
-239 31 -386 25 -396 -5 -8 -78 -89 -163 -179 -182 -194 -204 -232 -199 -339
l3 -71 -155 3 -155 3 -30 75 c-27 68 -30 86 -30 185 0 105 2 114 33 177 35 71
89 133 149 171 60 38 263 109 290 102 31 -7 48 -51 30 -78 -7 -10 -60 -38
-117 -61 -82 -33 -106 -47 -108 -63 -2 -11 3 -23 10 -26 8 -2 65 16 127 41 92
36 117 51 132 76 34 55 17 127 -35 156 -15 8 -26 22 -26 34 0 12 14 145 31
296 27 235 35 278 52 298 11 12 29 22 39 22 10 0 29 -10 41 -22z m-195 -1460
c8 -8 12 -46 12 -105 l0 -93 -235 0 -235 0 0 93 c0 59 4 97 12 105 17 17 429
17 446 0z"/>
</g>
</svg>
